#N canvas 114 80 1089 890 10;
#X declare -path . -path .. -path data -path ../data -path ev-in -path
../ev-in -path ev-main -path ../ev-main -path ev-pano -path ../ev-pano
-path ev-pro -path ../ev-pro -path libs/gil -path ../libs/gil -path
libs/kollabs -path ../libs/kollabs -path media -path ../media -path
ev-glsl -path ../ev-glsl;
#X obj 14 14 cnv 15 700 30 empty empty Projection_Mapping_with_Extended_View_Toolkit
20 12 0 14 -233017 -66577 0;
#X obj 14 47 cnv 15 80 40 empty empty empty 2 8 0 10 -258113 -262144
0;
#N canvas 558 429 548 468 init 0;
#X obj 56 92 loadbang;
#X obj 83 138 del 1000;
#X obj 56 114 t b b;
#X obj 56 231 del 3000;
#X obj 44 -23 cnv 15 400 100 empty empty IMPORTANT 20 12 0 14 -261234
-66577 0;
#X text 49 -3 Such a declare object should always be in the main patch
of your project \, to set the pathes to the abstractions.;
#X text 159 140 load the preset file on startup:;
#X obj 158 43 ev-main/ev_declare;
#X text 170 226 (pathes relative to libs/kollabs);
#X text 66 272 Recall scene '0' from the loaded preset file:;
#X msg 83 170 \; /0/ds/loadfile ../../data/_lecture_preparation.txt
\; /teapot/ds/loadfile ../../data/_lecture_preparation_teapot.txt;
#X msg 56 298 \; /0/ds/scene 0 \; /teapot/ds/scene 0 \;;
#X connect 0 0 2 0;
#X connect 1 0 10 0;
#X connect 2 0 3 0;
#X connect 2 1 1 0;
#X connect 3 0 11 0;
#X restore 30 59 pd init;
#X obj 10 104 ev_storage;
#X obj 177 106 ev_gemwin;
#X obj 584 94 gemhead;
#X obj 584 116 ev_pic background;
#X obj 584 190 pix_texture;
#X obj 584 212 rectangle 5.333 4;
#X obj 132 279 gemhead 51;
#X obj 541 262 gemhead;
#X obj 163 510 ev_pro_22 container2;
#X obj 264 596 ev_pro_22 container3;
#X obj 132 351 t a a a;
#X obj 686 554 world_light;
#X obj 543 386 t a a;
#X obj 566 425 ev_pic picture;
#X obj 566 506 pix_texture;
#X obj 566 528 rectangle 5.333 4;
#X msg 314 254 1024 3;
#X obj 314 276 /;
#X floatatom 314 298 5 0 0 0 - - -;
#X obj 314 317 * 2;
#X floatatom 314 339 5 0 0 0 - - -;
#X obj 548 678 rotateXYZ 0 0 0;
#X obj 548 728 teapot 2.5;
#X msg 573 567 0 \, 360 10000;
#X obj 573 589 line;
#X obj 599 609 sel 360;
#X obj 488 530 loadbang;
#X obj 287 841 tgl 15 0 empty /ev/texhelper/state empty 17 7 0 10 -262144
-1 -1 0 1;
#X obj 743 755 t a a a;
#X obj 299 899 == 0;
#X obj 743 704 gemhead 60;
#X obj 765 918 ev_texhelper container1;
#X obj 746 976 ev_texhelper container2;
#X obj 702 1041 ev_texhelper container3;
#X msg 299 928 \; /ev/pro/container1/state \$1 \; /ev/pro/container2/state
\$1 \; /ev/pro/container3/state \$1;
#X obj 687 532 gemhead 99;
#X obj 802 795 separator;
#X obj 802 817 pix_texture;
#X obj 802 839 square 4;
#X msg 287 991 \; /ev/texhelper/container1/state \$1 \; /ev/texhelper/container2/state
\$1 \; /ev/texhelper/container3/state \$1 \;;
#X obj 548 700 color 0.5 0.5 1 1;
#X obj 132 421 ev_pro_22 container1;
#X obj 543 285 ev_buf containers;
#X obj 58 691 ds_reg teapot /teapot/color/r;
#X obj 58 710 ds_reg teapot /teapot/color/g;
#X obj 58 731 ds_reg teapot /teapot/color/b;
#X obj 40 806 ev_storage teapot;
#X obj 312 681 r /teapot/color/r;
#X obj 322 701 r /teapot/color/g;
#X obj 362 721 r /teapot/color/b;
#X obj 312 773 pack f f f 1;
#X obj 322 723 t b f;
#X obj 362 743 t b f;
#X obj 514 816 vsl 15 128 0 1 0 0 /teapot/color/r /teapot/color/r R
0 -9 0 10 -258113 -1 -1 12700 1;
#X obj 534 816 vsl 15 128 0 1 0 0 /teapot/color/g /teapot/color/g G
0 -9 0 10 -4034 -1 -1 3600 1;
#X obj 554 816 vsl 15 128 0 1 0 0 /teapot/color/b /teapot/color/b B
0 -9 0 10 -4160 -1 -1 1200 1;
#X connect 5 0 6 0;
#X connect 6 0 7 0;
#X connect 7 0 8 0;
#X connect 9 0 13 0;
#X connect 10 0 45 0;
#X connect 13 0 44 0;
#X connect 13 1 11 0;
#X connect 13 2 12 0;
#X connect 15 0 24 0;
#X connect 16 0 17 0;
#X connect 17 0 18 0;
#X connect 19 0 20 0;
#X connect 20 0 21 0;
#X connect 21 0 22 0;
#X connect 22 0 23 0;
#X connect 24 0 43 0;
#X connect 26 0 27 0;
#X connect 27 0 28 0;
#X connect 27 0 24 1;
#X connect 27 0 24 2;
#X connect 27 0 24 3;
#X connect 28 0 26 0;
#X connect 29 0 26 0;
#X connect 30 0 32 0;
#X connect 30 0 42 0;
#X connect 30 0 33 0;
#X connect 31 0 35 0;
#X connect 31 0 36 0;
#X connect 31 1 34 0;
#X connect 31 2 39 0;
#X connect 32 0 37 0;
#X connect 33 0 31 0;
#X connect 38 0 14 0;
#X connect 39 0 40 0;
#X connect 40 0 41 0;
#X connect 43 0 25 0;
#X connect 45 0 15 0;
#X connect 45 1 11 1;
#X connect 45 1 12 1;
#X connect 45 1 40 1;
#X connect 45 1 44 1;
#X connect 50 0 53 0;
#X connect 51 0 54 0;
#X connect 52 0 55 0;
#X connect 53 0 43 1;
#X connect 54 0 53 0;
#X connect 54 1 53 1;
#X connect 55 0 53 0;
#X connect 55 1 53 2;
#X coords 0 0 1 1 85 60 0;
