#N canvas 387 54 780 907 10;
#X declare -path . -path .. -path data -path ../data -path ev-in -path
../ev-in -path ev-main -path ../ev-main -path ev-pano -path ../ev-pano
-path ev-pro -path ../ev-pro -path libs/gil -path ../libs/gil -path
libs/kollabs -path ../libs/kollabs -path media -path ../media -path
ev-glsl -path ../ev-glsl;
#X obj 14 14 cnv 15 700 30 empty empty EXTENDED_VIEW_TOOLKIT:_blank_patch_template
20 12 0 14 -233017 -66577 0;
#X obj 14 47 cnv 15 80 40 empty empty empty 2 8 0 10 -258113 -262144
0;
#N canvas 55 302 548 468 init 0;
#X obj 56 92 loadbang;
#X obj 83 138 del 1000;
#X obj 56 114 t b b;
#X obj 56 221 del 3000;
#X obj 44 -23 cnv 15 400 100 empty empty IMPORTANT 20 12 0 14 -261234
-66577 0;
#X text 49 -3 Such a declare object should always be in the main patch
of your project \, to set the pathes to the abstractions.;
#X text 159 140 load the preset file on startup:;
#X msg 56 288 \; /0/ds/scene 0 \;;
#X obj 158 43 ev-main/ev_declare;
#X text 165 206 (pathes relative to libs/kollabs);
#X text 66 262 Recall scene '0' from the loaded preset file:;
#X msg 83 170 \; /0/ds/loadfile ../../data/lecture.txt;
#X connect 0 0 2 0;
#X connect 1 0 11 0;
#X connect 2 0 3 0;
#X connect 2 1 1 0;
#X connect 3 0 7 0;
#X restore 30 59 pd init;
#X text 109 48 This is a template file to start from scratch.;
#X obj 553 178 pix_texture;
#X obj 553 200 rectangle 5.333 4;
#X obj 553 84 gemhead 50;
#X obj 137 264 gemhead 51;
#X obj 474 221 gemhead;
#X obj 589 433 tgl 15 0 empty empty empty 17 7 0 10 -262144 -1 -1 0
1;
#X obj 589 453 gemhead 66;
#X obj 589 475 pix_texture;
#X obj 589 497 rectangle 4 4;
#X obj 516 526 gemhead;
#X obj 514 556 world_light;
#X obj 481 479 teapot 2;
#X obj 477 458 rotateXYZ 0 0 0;
#X obj 499 343 loadbang;
#X msg 499 365 0 \, 360 10000;
#X obj 499 387 line;
#X obj 527 411 sel 360;
#X msg 301 195 1024 3;
#X obj 301 217 /;
#X floatatom 301 239 5 0 0 0 - - -;
#X obj 301 258 * 2;
#X floatatom 301 280 5 0 0 0 - - -;
#X msg 214 544 bang;
#X obj 181 571 s /ev/vid/video1/start;
#X obj 320 574 s /ev/vid/video2/start;
#X obj 13 106 ev_storage 0;
#X obj 14 577 ev_storage one;
#X obj 183 598 ev_vid video1 one;
#X obj 185 308 ev_pro_22 container1 one;
#X obj 151 381 ev_pro_22 container2 one;
#X obj 127 467 ev_pro_22 container3 one;
#X obj 229 737 ev_lecture_color jump one;
#X obj 177 106 ev_gemwin one;
#X obj 553 106 ev_pic background one;
#X obj 474 251 ev_buf buffer one;
#X obj 547 600 ev_vid video2 one;
#X connect 4 0 5 0;
#X connect 6 0 37 0;
#X connect 7 0 32 0;
#X connect 7 0 33 0;
#X connect 7 0 34 0;
#X connect 8 0 38 0;
#X connect 9 0 10 0;
#X connect 10 0 11 0;
#X connect 11 0 12 0;
#X connect 13 0 14 0;
#X connect 16 0 15 0;
#X connect 17 0 18 0;
#X connect 18 0 19 0;
#X connect 19 0 20 0;
#X connect 19 0 16 1;
#X connect 19 0 16 2;
#X connect 19 0 16 3;
#X connect 20 0 18 0;
#X connect 21 0 22 0;
#X connect 22 0 23 0;
#X connect 23 0 24 0;
#X connect 24 0 25 0;
#X connect 26 0 27 0;
#X connect 26 0 28 0;
#X connect 37 0 4 0;
#X connect 38 0 16 0;
#X connect 38 1 11 1;
#X connect 38 1 32 1;
#X connect 38 1 33 1;
#X connect 38 1 34 1;
#X coords 0 0 1 1 85 60 0;
